Coordinates
version=1
nRows=24
nColumns=24
inDegrees=yes

Units are S.I. units (second, meters, Newtons, ...)
Angles are in degrees.

endheader
time	pelvis_tilt	pelvis_list	pelvis_rotation	pelvis_tx	pelvis_ty	pelvis_tz	hip_flexion_r	hip_adduction_r	hip_rotation_r	knee_angle_r	ankle_angle_r	subtalar_angle_r	mtp_angle_r	hip_flexion_l	hip_adduction_l	hip_rotation_l	knee_angle_l	ankle_angle_l	subtalar_angle_l	mtp_angle_l	lumbar_extension	lumbar_bending	lumbar_rotation
      2.09000000	     63.14680951	      1.51855978	     -5.87800312	      0.55255702	      0.99878649	     -0.29133969	      2.82472126	    -12.70452492	     16.91713349	    -85.61134874	     -8.72704589	      6.20937603	    -64.30650699	     -5.77623519	     -3.35485941	      0.65157178	    -59.22256883	    -26.50721016	     18.13498753	    121.67079158	      0.00000000	      0.00000000	      0.00000000
      2.10000000	     63.15729578	      1.59532204	     -5.87112486	      0.55279214	      0.99903793	     -0.29131151	      2.18035816	    -12.66205633	     17.02867100	    -82.95862302	     -9.21319088	      6.07803923	    -62.69966978	     -5.95530025	     -3.25946299	      0.52398624	    -58.83394706	    -26.55077270	     18.15501396	    121.82617677	      0.00000000	      0.00000000	      0.00000000
      2.11000000	     63.14042691	      1.67291638	     -5.86805907	      0.55299088	      0.99919620	     -0.29124544	      1.49350250	    -12.61557956	     17.14523247	    -80.12487368	     -9.71068832	      5.94885201	    -60.88749329	     -6.05519638	     -3.15267557	      0.41293789	    -58.51081900	    -26.61577074	     18.16826405	    122.02158986	      0.00000000	      0.00000000	      0.00000000
      2.12000000	     63.06700342	      1.74607920	     -5.83056241	      0.55320000	      0.99936051	     -0.29128912	      0.79929594	    -12.56716528	     17.24969346	    -77.12302549	    -10.14792345	      5.82553025	    -58.98641569	     -6.04082095	     -3.04959011	      0.33570406	    -58.26915155	    -26.70724647	     18.17626610	    122.23529973	      0.00000000	      0.00000000	      0.00000000
      2.13000000	     62.91509158	      1.81988677	     -5.72311293	      0.55345108	      0.99948203	     -0.29153417	      0.13159320	    -12.51075172	     17.32675525	    -73.99595883	    -10.48298106	      5.72045895	    -57.10851126	     -5.90066110	     -2.95906102	      0.31115621	    -58.08117192	    -26.82933053	     18.18476517	    122.45017453	      0.00000000	      0.00000000	      0.00000000
      2.14000000	     62.67688177	      1.91356180	     -5.52536357	      0.55376683	      0.99952686	     -0.29192113	     -0.49235132	    -12.43392124	     17.37238965	    -70.80111830	    -10.70089044	      5.65268222	    -55.34554103	     -5.64773461	     -2.88688347	      0.34946841	    -57.89798989	    -26.98360276	     18.20133916	    122.65486112	      0.00000000	      0.00000000	      0.00000000
      2.15000000	     62.36502536	      2.05308013	     -5.24079064	      0.55419010	      0.99958311	     -0.29211966	     -1.07808072	    -12.32541604	     17.40445932	    -67.59587000	    -10.80469640	      5.64327776	    -53.75892120	     -5.32202589	     -2.84048303	      0.44464153	    -57.67856949	    -27.16672416	     18.23163990	    122.84332010	      0.00000000	      0.00000000	      0.00000000
      2.16000000	     62.02163116	      2.25139475	     -4.90315783	      0.55478312	      0.99983368	     -0.29168634	     -1.64677209	    -12.18202601	     17.46400255	    -64.42856742	    -10.80596331	      5.70988534	    -52.37676316	     -4.98874536	     -2.82634939	      0.57187668	    -57.41059751	    -27.36872060	     18.27619168	    123.01315020	      0.00000000	      0.00000000	      0.00000000
      2.17000000	     61.72148702	      2.48569671	     -4.57428296	      0.55553423	      1.00038501	     -0.29060647	     -2.22082276	    -12.01246339	     17.60535336	    -61.33718757	    -10.71811127	      5.86212068	    -51.19748735	     -4.72767094	     -2.84124349	      0.69071229	    -57.11342729	    -27.57348055	     18.32951981	    123.16324063	      0.00000000	      0.00000000	      0.00000000
      2.18000000	     61.55386018	      2.69349758	     -4.32635786	      0.55625255	      1.00100453	     -0.28965105	     -2.81448254	    -11.83586925	     17.87876731	    -58.35390151	    -10.55363534	      6.09936817	    -50.19823691	     -4.61426669	     -2.86684262	      0.75408406	    -56.82222872	    -27.76196576	     18.38209763	    123.29138779	      0.00000000	      0.00000000	      0.00000000
      2.19000000	     61.58288212	      2.80561632	     -4.21146869	      0.55668469	      1.00124481	     -0.28966365	     -3.43241528	    -11.67214629	     18.31078981	    -55.50957465	    -10.32458193	      6.41173828	    -49.34556280	     -4.69859826	     -2.87743144	      0.72289873	    -56.56380248	    -27.91704391	     18.42389933	    123.39267190	      0.00000000	      0.00000000	      0.00000000
      2.20000000	     61.81173307	      2.80013523	     -4.23780169	      0.55678669	      1.00101438	     -0.29043799	     -4.06862412	    -11.52810621	     18.88992375	    -52.83221357	    -10.04472048	      6.78390295	    -48.60564514	     -4.98896973	     -2.85930750	      0.58308651	    -56.34063743	    -28.02792327	     18.44754545	    123.45934828	      0.00000000	      0.00000000	      0.00000000
      2.21000000	     62.18153118	      2.72703493	     -4.37259510	      0.55678023	      1.00071572	     -0.29111169	     -4.69994094	    -11.39141428	     19.56561306	    -50.33903812	     -9.73169187	      7.20032597	    -47.95165437	     -5.44470767	     -2.82489680	      0.35602851	    -56.13352116	    -28.09263012	     18.44991568	    123.48249758	      0.00000000	      0.00000000	      0.00000000
      2.22000000	     62.60279168	      2.66530614	     -4.55939741	      0.55688061	      1.00070495	     -0.29132568	     -5.28168623	    -11.24483802	     20.26433831	    -48.02998773	     -9.40788923	      7.64940628	    -47.36674396	     -5.98176085	     -2.80086658	      0.09081871	    -55.91956135	    -28.11818728	     18.43264554	    123.45491392	      0.00000000	      0.00000000	      0.00000000
      2.23000000	     62.99029775	      2.65508739	     -4.73312447	      0.55706979	      1.00093215	     -0.29120621	     -5.75678829	    -11.08782023	     20.91343798	    -45.88891770	     -9.09939276	      8.12491292	    -46.84246559	     -6.49282100	     -2.80133856	     -0.15821980	    -55.69326984	    -28.11850751	     18.40163544	    123.37425751	      0.00000000	      0.00000000	      0.00000000
      2.24000000	     63.28419889	      2.68600961	     -4.84134732	      0.55719939	      1.00114106	     -0.29092298	     -6.07575003	    -10.93622464	     21.45647964	    -43.88973197	     -8.83278171	      8.62472416	    -46.37364479	     -6.87732528	     -2.82158935	     -0.35045344	    -55.47781385	    -28.11017964	     18.36499135	    123.24551259	      0.00000000	      0.00000000	      0.00000000
      2.25000000	     63.45697856	      2.73526278	     -4.86486450	      0.55720394	      1.00117593	     -0.29068440	     -6.21486116	    -10.80503033	     21.85760214	    -42.00435718	     -8.63041230	      9.14677794	    -45.95159565	     -7.07104698	     -2.85338629	     -0.46634674	    -55.31881299	    -28.10767848	     18.33037762	    123.08197690	      0.00000000	      0.00000000	      0.00000000
      2.26000000	     63.51249046	      2.79159423	     -4.81768534	      0.55715287	      1.00103508	     -0.29066364	     -6.18327186	    -10.69955842	     22.10217005	    -40.21217423	     -8.50536965	      9.68277736	    -45.55801806	     -7.06294883	     -2.89529701	     -0.50767582	    -55.26086207	    -28.11992167	     18.30350758	    122.90430655	      0.00000000	      0.00000000	      0.00000000
      2.27000000	     63.48233438	      2.84966068	     -4.72997167	      0.55719391	      1.00078721	     -0.29079751	     -6.01689755	    -10.61792306	     22.19552077	    -38.50765645	     -8.45751436	     10.21259178	    -45.16190578	     -6.89360005	     -2.94901844	     -0.49256715	    -55.31698003	    -28.14873958	     18.28794199	    122.73759296	      0.00000000	      0.00000000	      0.00000000
      2.28000000	     63.41596946	      2.90120751	     -4.63131554	      0.55744664	      1.00055483	     -0.29083490	     -5.76412279	    -10.55254017	     22.15729182	    -36.90188310	     -8.47227332	     10.70334805	    -44.72111806	     -6.64124738	     -3.01140124	     -0.44546947	    -55.44911245	    -28.18900869	     18.28529019	    122.60690111	      0.00000000	      0.00000000	      0.00000000
      2.29000000	     63.36135722	      2.93956594	     -4.54462161	      0.55777629	      1.00044918	     -0.29068228	     -5.47264735	    -10.48864070	     22.01200892	    -35.41679729	     -8.52362188	     11.11551546	    -44.18900192	     -6.40284930	     -3.07262910	     -0.38511142	    -55.57511508	    -28.23034968	     18.29510490	    122.53208020	      0.00000000	      0.00000000	      0.00000000
      2.30000000	     63.34900936	      2.96737550	     -4.48782647	      0.55774677	      1.00039262	     -0.29059525	     -5.18289419	    -10.40903902	     21.78099361	    -34.07376698	     -8.58103564	     11.41451632	    -43.52475065	     -6.26806481	     -3.12182547	     -0.31651436	    -55.60335413	    -28.26020208	     18.31440974	    122.52300852	      0.00000000	      0.00000000	      0.00000000
      2.31000000	     63.39547067	      2.99238822	     -4.47357830	      0.55712553	      1.00025493	     -0.29081966	     -4.92580348	    -10.30650359	     21.47950383	    -32.88120332	     -8.61772006	     11.58264979	    -42.70453609	     -6.28528868	     -3.15192986	     -0.23269051	    -55.47852310	    -28.26739225	     18.33742032	    122.57662203	      0.00000000	      0.00000000	      0.00000000
      2.32000000	     63.50907769	      3.01837343	     -4.50225408	      0.55624464	      1.00013468	     -0.29119796	     -4.72097905	    -10.19030360	     21.11781237	    -31.82896395	     -8.61648389	     11.62535926	    -41.72979687	     -6.44475123	     -3.16012944	     -0.12445190	    -55.21248821	    -28.24485665	     18.35619213	    122.67677115	      0.00000000	      0.00000000	      0.00000000
